<svg width="92" height="104" viewBox="0 0 92 104" fill="none" xmlns="http://www.w3.org/2000/svg">
<rect x="1" y="1.76245" width="89.531" height="101.18" fill="#7FB2AC" stroke="#29454D" stroke-width="2"/>
<path d="M10.7173 27.0774C10.7173 24.8683 12.5081 23.0774 14.7173 23.0774H52.0502C54.2593 23.0774 56.0502 24.8683 56.0502 27.0774V102.942H10.7173V27.0774Z" fill="white" stroke="#29454D" stroke-width="2"/>
<path d="M28.7105 48.982H26.381L31.6154 34.4365H34.1509L39.3852 48.982H37.0557L32.9435 37.0786H32.8298L28.7105 48.982ZM29.1012 43.286H36.658V45.1325H29.1012V43.286Z" fill="#19888C"/>
<path d="M16.8044 63.1152C16.8044 62.5629 17.2522 62.1152 17.8044 62.1152H20.5342H23.2639C23.8162 62.1152 24.2639 62.5629 24.2639 63.1152V76.5555C24.2639 77.1078 23.8162 77.5555 23.2639 77.5555H20.5342H17.8044C17.2522 77.5555 16.8044 77.1078 16.8044 76.5555V63.1152Z" fill="#7FB2AC"/>
<path d="M20.5342 58.1111V62.1152M20.5342 62.1152H17.8044C17.2522 62.1152 16.8044 62.5629 16.8044 63.1152V76.5555C16.8044 77.1078 17.2522 77.5555 17.8044 77.5555H20.5342M20.5342 62.1152H23.2639C23.8162 62.1152 24.2639 62.5629 24.2639 63.1152V76.5555C24.2639 77.1078 23.8162 77.5555 23.2639 77.5555H20.5342M20.5342 77.5555V82.0598" stroke="#29454D" stroke-width="2" stroke-linecap="round"/>
<rect x="61.5735" y="48.5107" width="20.5327" height="25.0788" rx="3" fill="#19888C" stroke="#29454D" stroke-width="2"/>
<path d="M68.9349 58.7244C68.9349 59.625 68.2049 60.3551 67.3043 60.3551C66.4037 60.3551 65.6736 59.625 65.6736 58.7244C65.6736 57.8238 66.4037 57.0938 67.3043 57.0938C68.2049 57.0938 68.9349 57.8238 68.9349 58.7244Z" fill="#29454D"/>
<path d="M68.8351 63.5894C68.8351 64.49 68.105 65.2201 67.2044 65.2201C66.3038 65.2201 65.5737 64.49 65.5737 63.5894C65.5737 62.6888 66.3038 61.9587 67.2044 61.9587C68.105 61.9587 68.8351 62.6888 68.8351 63.5894Z" fill="#29454D"/>
<path d="M68.8348 68.4549C68.8348 69.3555 68.1048 70.0856 67.2042 70.0856C66.3036 70.0856 65.5735 69.3555 65.5735 68.4549C65.5735 67.5543 66.3036 66.8242 67.2042 66.8242C68.1048 66.8242 68.8348 67.5543 68.8348 68.4549Z" fill="#29454D"/>
<path d="M73.5702 58.7244C73.5702 59.625 72.8401 60.3551 71.9395 60.3551C71.0389 60.3551 70.3088 59.625 70.3088 58.7244C70.3088 57.8238 71.0389 57.0938 71.9395 57.0938C72.8401 57.0938 73.5702 57.8238 73.5702 58.7244Z" fill="#29454D"/>
<path d="M73.4703 63.5894C73.4703 64.49 72.7403 65.2201 71.8397 65.2201C70.9391 65.2201 70.209 64.49 70.209 63.5894C70.209 62.6888 70.9391 61.9587 71.8397 61.9587C72.7403 61.9587 73.4703 62.6888 73.4703 63.5894Z" fill="#29454D"/>
<path d="M73.4701 68.4549C73.4701 69.3555 72.74 70.0856 71.8394 70.0856C70.9388 70.0856 70.2087 69.3555 70.2087 68.4549C70.2087 67.5543 70.9388 66.8242 71.8394 66.8242C72.74 66.8242 73.4701 67.5543 73.4701 68.4549Z" fill="#29454D"/>
<path d="M78.2057 58.7244C78.2057 59.625 77.4756 60.3551 76.575 60.3551C75.6744 60.3551 74.9443 59.625 74.9443 58.7244C74.9443 57.8238 75.6744 57.0938 76.575 57.0938C77.4756 57.0938 78.2057 57.8238 78.2057 58.7244Z" fill="#29454D"/>
<path d="M78.1061 63.5894C78.1061 64.49 77.376 65.2201 76.4754 65.2201C75.5748 65.2201 74.8447 64.49 74.8447 63.5894C74.8447 62.6888 75.5748 61.9587 76.4754 61.9587C77.376 61.9587 78.1061 62.6888 78.1061 63.5894Z" fill="#29454D"/>
<path d="M78.1058 68.4549C78.1058 69.3555 77.3758 70.0856 76.4752 70.0856C75.5746 70.0856 74.8445 69.3555 74.8445 68.4549C74.8445 67.5543 75.5746 66.8242 76.4752 66.8242C77.3758 66.8242 78.1058 67.5543 78.1058 68.4549Z" fill="#29454D"/>
<path d="M67.5286 53.8229C67.5286 53.0107 68.187 52.3523 68.9992 52.3523H75.2589C76.0711 52.3523 76.7295 53.0107 76.7295 53.8229C76.7295 54.6351 76.0711 55.2935 75.2589 55.2935H68.9992C68.187 55.2935 67.5286 54.6351 67.5286 53.8229Z" fill="#29454D"/>
<circle cx="71.9396" cy="35.713" r="7.30675" fill="white" stroke="#29454D" stroke-width="2"/>
</svg>
